<?xml version="1.0" encoding="UTF-8" standalone="no"?>
<!DOCTYPE svg PUBLIC "-//W3C//DTD SVG 1.1//EN"
 "http://www.w3.org/Graphics/SVG/1.1/DTD/svg11.dtd">
<!-- Generated by graphviz version 2.47.3 (20210619.1520)
 -->
<!-- Title: dependencies Pages: 1 -->
<svg width="1568pt" height="247pt"
 viewBox="0.00 0.00 1568.00 246.80" xmlns="http://www.w3.org/2000/svg" xmlns:xlink="http://www.w3.org/1999/xlink">
<g id="graph0" class="graph" transform="scale(1 1) rotate(0) translate(4 242.8)">
<title>dependencies</title>
<polygon fill="white" stroke="transparent" points="-4,4 -4,-242.8 1564,-242.8 1564,4 -4,4"/>
<text text-anchor="middle" x="780" y="-8.2" font-family="sans-serif" font-size="14.00">dependencies</text>
<g id="clust1" class="cluster">
<title>cluster_AppModule</title>
<polygon fill="none" stroke="black" stroke-dasharray="1,5" points="8,-32.8 8,-230.8 1552,-230.8 1552,-32.8 8,-32.8"/>
</g>
<g id="clust12" class="cluster">
<title>cluster_AppModule_imports</title>
<polygon fill="none" stroke="black" points="1400,-40.8 1400,-92.8 1544,-92.8 1544,-40.8 1400,-40.8"/>
</g>
<g id="clust14" class="cluster">
<title>cluster_AppModule_bootstrap</title>
<polygon fill="none" stroke="black" points="707,-170.8 707,-222.8 831,-222.8 831,-170.8 707,-170.8"/>
</g>
<g id="clust2" class="cluster">
<title>cluster_AppModule_declarations</title>
<polygon fill="none" stroke="black" points="16,-40.8 16,-92.8 1392,-92.8 1392,-40.8 16,-40.8"/>
</g>
<!-- AccordionComponent -->
<g id="node1" class="node">
<title>AccordionComponent</title>
<polygon fill="#ffffb3" stroke="black" points="1384.42,-84.8 1243.58,-84.8 1243.58,-48.8 1384.42,-48.8 1384.42,-84.8"/>
<text text-anchor="middle" x="1314" y="-62.6" font-family="Times,serif" font-size="14.00">AccordionComponent</text>
</g>
<!-- AppModule -->
<g id="node10" class="node">
<title>AppModule</title>
<polygon fill="#8dd3c7" stroke="black" points="810.66,-149.8 807.66,-153.8 786.66,-153.8 783.66,-149.8 727.34,-149.8 727.34,-113.8 810.66,-113.8 810.66,-149.8"/>
<text text-anchor="middle" x="769" y="-127.6" font-family="Times,serif" font-size="14.00">AppModule</text>
</g>
<!-- AccordionComponent&#45;&gt;AppModule -->
<g id="edge1" class="edge">
<title>AccordionComponent&#45;&gt;AppModule</title>
<path fill="none" stroke="black" d="M1314,-84.93C1314,-105.37 1314,-135.8 1314,-135.8 1314,-135.8 820.86,-135.8 820.86,-135.8"/>
<polygon fill="black" stroke="black" points="820.86,-132.3 810.86,-135.8 820.86,-139.3 820.86,-132.3"/>
</g>
<!-- AppComponent -->
<g id="node2" class="node">
<title>AppComponent</title>
<polygon fill="#ffffb3" stroke="black" points="1225.94,-84.8 1120.06,-84.8 1120.06,-48.8 1225.94,-48.8 1225.94,-84.8"/>
<text text-anchor="middle" x="1173" y="-62.6" font-family="Times,serif" font-size="14.00">AppComponent</text>
</g>
<!-- AppComponent&#45;&gt;AppModule -->
<g id="edge2" class="edge">
<title>AppComponent&#45;&gt;AppModule</title>
<path fill="none" stroke="black" d="M1173,-85.07C1173,-103.36 1173,-128.8 1173,-128.8 1173,-128.8 820.71,-128.8 820.71,-128.8"/>
<polygon fill="black" stroke="black" points="820.71,-125.3 810.71,-128.8 820.71,-132.3 820.71,-125.3"/>
</g>
<!-- DatepickerComponent -->
<g id="node3" class="node">
<title>DatepickerComponent</title>
<polygon fill="#ffffb3" stroke="black" points="1102.24,-84.8 959.76,-84.8 959.76,-48.8 1102.24,-48.8 1102.24,-84.8"/>
<text text-anchor="middle" x="1031" y="-62.6" font-family="Times,serif" font-size="14.00">DatepickerComponent</text>
</g>
<!-- DatepickerComponent&#45;&gt;AppModule -->
<g id="edge3" class="edge">
<title>DatepickerComponent&#45;&gt;AppModule</title>
<path fill="none" stroke="black" d="M1031,-84.81C1031,-100.85 1031,-121.8 1031,-121.8 1031,-121.8 820.8,-121.8 820.8,-121.8"/>
<polygon fill="black" stroke="black" points="820.8,-118.3 810.8,-121.8 820.8,-125.3 820.8,-118.3"/>
</g>
<!-- DatepickerPopupComponent -->
<g id="node4" class="node">
<title>DatepickerPopupComponent</title>
<polygon fill="#ffffb3" stroke="black" points="941.02,-84.8 762.98,-84.8 762.98,-48.8 941.02,-48.8 941.02,-84.8"/>
<text text-anchor="middle" x="852" y="-62.6" font-family="Times,serif" font-size="14.00">DatepickerPopupComponent</text>
</g>
<!-- DatepickerPopupComponent&#45;&gt;AppModule -->
<g id="edge4" class="edge">
<title>DatepickerPopupComponent&#45;&gt;AppModule</title>
<path fill="none" stroke="black" d="M786.78,-84.91C786.78,-84.91 786.78,-103.79 786.78,-103.79"/>
<polygon fill="black" stroke="black" points="783.28,-103.79 786.78,-113.79 790.28,-103.79 783.28,-103.79"/>
</g>
<!-- HomeComponent -->
<g id="node5" class="node">
<title>HomeComponent</title>
<polygon fill="#ffffb3" stroke="black" points="744.55,-84.8 629.45,-84.8 629.45,-48.8 744.55,-48.8 744.55,-84.8"/>
<text text-anchor="middle" x="687" y="-62.6" font-family="Times,serif" font-size="14.00">HomeComponent</text>
</g>
<!-- HomeComponent&#45;&gt;AppModule -->
<g id="edge5" class="edge">
<title>HomeComponent&#45;&gt;AppModule</title>
<path fill="none" stroke="black" d="M735.97,-84.91C735.97,-84.91 735.97,-103.79 735.97,-103.79"/>
<polygon fill="black" stroke="black" points="732.47,-103.79 735.97,-113.79 739.47,-103.79 732.47,-103.79"/>
</g>
<!-- IslamicCivilComponent -->
<g id="node6" class="node">
<title>IslamicCivilComponent</title>
<polygon fill="#ffffb3" stroke="black" points="611.05,-84.8 460.95,-84.8 460.95,-48.8 611.05,-48.8 611.05,-84.8"/>
<text text-anchor="middle" x="536" y="-62.6" font-family="Times,serif" font-size="14.00">IslamicCivilComponent</text>
</g>
<!-- IslamicCivilComponent&#45;&gt;AppModule -->
<g id="edge6" class="edge">
<title>IslamicCivilComponent&#45;&gt;AppModule</title>
<path fill="none" stroke="black" d="M536,-84.81C536,-100.85 536,-121.8 536,-121.8 536,-121.8 717.08,-121.8 717.08,-121.8"/>
<polygon fill="black" stroke="black" points="717.08,-125.3 727.08,-121.8 717.08,-118.3 717.08,-125.3"/>
</g>
<!-- ModalComponent -->
<g id="node7" class="node">
<title>ModalComponent</title>
<polygon fill="#ffffb3" stroke="black" points="442.88,-84.8 325.12,-84.8 325.12,-48.8 442.88,-48.8 442.88,-84.8"/>
<text text-anchor="middle" x="384" y="-62.6" font-family="Times,serif" font-size="14.00">ModalComponent</text>
</g>
<!-- ModalComponent&#45;&gt;AppModule -->
<g id="edge7" class="edge">
<title>ModalComponent&#45;&gt;AppModule</title>
<path fill="none" stroke="black" d="M384,-85.07C384,-103.36 384,-128.8 384,-128.8 384,-128.8 717.07,-128.8 717.07,-128.8"/>
<polygon fill="black" stroke="black" points="717.07,-132.3 727.07,-128.8 717.07,-125.3 717.07,-132.3"/>
</g>
<!-- NavbarComponent -->
<g id="node8" class="node">
<title>NavbarComponent</title>
<polygon fill="#ffffb3" stroke="black" points="307.03,-84.8 184.97,-84.8 184.97,-48.8 307.03,-48.8 307.03,-84.8"/>
<text text-anchor="middle" x="246" y="-62.6" font-family="Times,serif" font-size="14.00">NavbarComponent</text>
</g>
<!-- NavbarComponent&#45;&gt;AppModule -->
<g id="edge8" class="edge">
<title>NavbarComponent&#45;&gt;AppModule</title>
<path fill="none" stroke="black" d="M246,-84.93C246,-105.37 246,-135.8 246,-135.8 246,-135.8 717.08,-135.8 717.08,-135.8"/>
<polygon fill="black" stroke="black" points="717.08,-139.3 727.08,-135.8 717.08,-132.3 717.08,-139.3"/>
</g>
<!-- TypeaheadComponent -->
<g id="node9" class="node">
<title>TypeaheadComponent</title>
<polygon fill="#ffffb3" stroke="black" points="166.24,-84.8 23.76,-84.8 23.76,-48.8 166.24,-48.8 166.24,-84.8"/>
<text text-anchor="middle" x="95" y="-62.6" font-family="Times,serif" font-size="14.00">TypeaheadComponent</text>
</g>
<!-- TypeaheadComponent&#45;&gt;AppModule -->
<g id="edge9" class="edge">
<title>TypeaheadComponent&#45;&gt;AppModule</title>
<path fill="none" stroke="black" d="M95,-84.81C95,-107.29 95,-142.8 95,-142.8 95,-142.8 717.09,-142.8 717.09,-142.8"/>
<polygon fill="black" stroke="black" points="717.09,-146.3 727.09,-142.8 717.09,-139.3 717.09,-146.3"/>
</g>
<!-- AppComponent  -->
<g id="node12" class="node">
<title>AppComponent </title>
<polygon fill="#80b1d3" stroke="black" points="823.44,-214.8 714.56,-214.8 714.56,-178.8 823.44,-178.8 823.44,-214.8"/>
<text text-anchor="middle" x="769" y="-192.6" font-family="Times,serif" font-size="14.00">AppComponent </text>
</g>
<!-- AppModule&#45;&gt;AppComponent  -->
<g id="edge11" class="edge">
<title>AppModule&#45;&gt;AppComponent </title>
<path fill="none" stroke="black" stroke-dasharray="1,5" d="M769,-149.91C769,-149.91 769,-168.79 769,-168.79"/>
<polygon fill="black" stroke="black" points="765.5,-168.79 769,-178.79 772.5,-168.79 765.5,-168.79"/>
</g>
<!-- AppRoutingModule -->
<g id="node11" class="node">
<title>AppRoutingModule</title>
<polygon fill="#8dd3c7" stroke="black" points="1536.27,-84.8 1533.27,-88.8 1512.27,-88.8 1509.27,-84.8 1407.73,-84.8 1407.73,-48.8 1536.27,-48.8 1536.27,-84.8"/>
<text text-anchor="middle" x="1472" y="-62.6" font-family="Times,serif" font-size="14.00">AppRoutingModule</text>
</g>
<!-- AppRoutingModule&#45;&gt;AppModule -->
<g id="edge10" class="edge">
<title>AppRoutingModule&#45;&gt;AppModule</title>
<path fill="none" stroke="black" d="M1472,-84.81C1472,-107.29 1472,-142.8 1472,-142.8 1472,-142.8 820.87,-142.8 820.87,-142.8"/>
<polygon fill="black" stroke="black" points="820.87,-139.3 810.87,-142.8 820.87,-146.3 820.87,-139.3"/>
</g>
</g>
</svg>
