<?xml version="1.0" encoding="UTF-8" standalone="no"?>
<!DOCTYPE svg PUBLIC "-//W3C//DTD SVG 1.1//EN"
 "http://www.w3.org/Graphics/SVG/1.1/DTD/svg11.dtd">
<!-- Generated by graphviz version 2.47.3 (20210619.1520)
 -->
<!-- Title: dependencies Pages: 1 -->
<svg width="1568pt" height="247pt"
 viewBox="0.00 0.00 1568.00 246.80" xmlns="http://www.w3.org/2000/svg" xmlns:xlink="http://www.w3.org/1999/xlink">
<g id="graph0" class="graph" transform="scale(1 1) rotate(0) translate(4 242.8)">
<title>dependencies</title>
<polygon fill="white" stroke="transparent" points="-4,4 -4,-242.8 1564,-242.8 1564,4 -4,4"/>
<text text-anchor="middle" x="780" y="-8.2" font-family="sans-serif" font-size="14.00">dependencies</text>
<g id="clust1" class="cluster">
<title>cluster_AppModule</title>
<polygon fill="none" stroke="black" stroke-dasharray="1,5" points="8,-32.8 8,-230.8 1552,-230.8 1552,-32.8 8,-32.8"/>
</g>
<g id="clust2" class="cluster">
<title>cluster_AppModule_declarations</title>
<polygon fill="none" stroke="black" points="168,-40.8 168,-92.8 1544,-92.8 1544,-40.8 168,-40.8"/>
</g>
<g id="clust12" class="cluster">
<title>cluster_AppModule_imports</title>
<polygon fill="none" stroke="black" points="16,-40.8 16,-92.8 160,-92.8 160,-40.8 16,-40.8"/>
</g>
<g id="clust14" class="cluster">
<title>cluster_AppModule_bootstrap</title>
<polygon fill="none" stroke="black" points="701,-170.8 701,-222.8 825,-222.8 825,-170.8 701,-170.8"/>
</g>
<!-- AccordionComponent -->
<g id="node1" class="node">
<title>AccordionComponent</title>
<polygon fill="#ffffb3" stroke="black" points="1536.42,-84.8 1395.58,-84.8 1395.58,-48.8 1536.42,-48.8 1536.42,-84.8"/>
<text text-anchor="middle" x="1466" y="-62.6" font-family="Times,serif" font-size="14.00">AccordionComponent</text>
</g>
<!-- AppModule -->
<g id="node10" class="node">
<title>AppModule</title>
<polygon fill="#8dd3c7" stroke="black" points="804.66,-149.8 801.66,-153.8 780.66,-153.8 777.66,-149.8 721.34,-149.8 721.34,-113.8 804.66,-113.8 804.66,-149.8"/>
<text text-anchor="middle" x="763" y="-127.6" font-family="Times,serif" font-size="14.00">AppModule</text>
</g>
<!-- AccordionComponent&#45;&gt;AppModule -->
<g id="edge1" class="edge">
<title>AccordionComponent&#45;&gt;AppModule</title>
<path fill="none" stroke="black" d="M1466,-84.81C1466,-107.29 1466,-142.8 1466,-142.8 1466,-142.8 814.87,-142.8 814.87,-142.8"/>
<polygon fill="black" stroke="black" points="814.87,-139.3 804.87,-142.8 814.87,-146.3 814.87,-139.3"/>
</g>
<!-- AppComponent -->
<g id="node2" class="node">
<title>AppComponent</title>
<polygon fill="#ffffb3" stroke="black" points="1377.94,-84.8 1272.06,-84.8 1272.06,-48.8 1377.94,-48.8 1377.94,-84.8"/>
<text text-anchor="middle" x="1325" y="-62.6" font-family="Times,serif" font-size="14.00">AppComponent</text>
</g>
<!-- AppComponent&#45;&gt;AppModule -->
<g id="edge2" class="edge">
<title>AppComponent&#45;&gt;AppModule</title>
<path fill="none" stroke="black" d="M1325,-84.93C1325,-105.37 1325,-135.8 1325,-135.8 1325,-135.8 814.78,-135.8 814.78,-135.8"/>
<polygon fill="black" stroke="black" points="814.78,-132.3 804.78,-135.8 814.78,-139.3 814.78,-132.3"/>
</g>
<!-- DatepickerComponent -->
<g id="node3" class="node">
<title>DatepickerComponent</title>
<polygon fill="#ffffb3" stroke="black" points="1254.24,-84.8 1111.76,-84.8 1111.76,-48.8 1254.24,-48.8 1254.24,-84.8"/>
<text text-anchor="middle" x="1183" y="-62.6" font-family="Times,serif" font-size="14.00">DatepickerComponent</text>
</g>
<!-- DatepickerComponent&#45;&gt;AppModule -->
<g id="edge3" class="edge">
<title>DatepickerComponent&#45;&gt;AppModule</title>
<path fill="none" stroke="black" d="M1183,-85.07C1183,-103.36 1183,-128.8 1183,-128.8 1183,-128.8 814.81,-128.8 814.81,-128.8"/>
<polygon fill="black" stroke="black" points="814.81,-125.3 804.81,-128.8 814.81,-132.3 814.81,-125.3"/>
</g>
<!-- DatepickerPopupComponent -->
<g id="node4" class="node">
<title>DatepickerPopupComponent</title>
<polygon fill="#ffffb3" stroke="black" points="1093.02,-84.8 914.98,-84.8 914.98,-48.8 1093.02,-48.8 1093.02,-84.8"/>
<text text-anchor="middle" x="1004" y="-62.6" font-family="Times,serif" font-size="14.00">DatepickerPopupComponent</text>
</g>
<!-- DatepickerPopupComponent&#45;&gt;AppModule -->
<g id="edge4" class="edge">
<title>DatepickerPopupComponent&#45;&gt;AppModule</title>
<path fill="none" stroke="black" d="M1004,-84.81C1004,-100.85 1004,-121.8 1004,-121.8 1004,-121.8 814.7,-121.8 814.7,-121.8"/>
<polygon fill="black" stroke="black" points="814.7,-118.3 804.7,-121.8 814.7,-125.3 814.7,-118.3"/>
</g>
<!-- HomeComponent -->
<g id="node5" class="node">
<title>HomeComponent</title>
<polygon fill="#ffffb3" stroke="black" points="896.55,-84.8 781.45,-84.8 781.45,-48.8 896.55,-48.8 896.55,-84.8"/>
<text text-anchor="middle" x="839" y="-62.6" font-family="Times,serif" font-size="14.00">HomeComponent</text>
</g>
<!-- HomeComponent&#45;&gt;AppModule -->
<g id="edge5" class="edge">
<title>HomeComponent&#45;&gt;AppModule</title>
<path fill="none" stroke="black" d="M793.03,-84.91C793.03,-84.91 793.03,-103.79 793.03,-103.79"/>
<polygon fill="black" stroke="black" points="789.53,-103.79 793.03,-113.79 796.53,-103.79 789.53,-103.79"/>
</g>
<!-- IslamicCivilComponent -->
<g id="node6" class="node">
<title>IslamicCivilComponent</title>
<polygon fill="#ffffb3" stroke="black" points="763.05,-84.8 612.95,-84.8 612.95,-48.8 763.05,-48.8 763.05,-84.8"/>
<text text-anchor="middle" x="688" y="-62.6" font-family="Times,serif" font-size="14.00">IslamicCivilComponent</text>
</g>
<!-- IslamicCivilComponent&#45;&gt;AppModule -->
<g id="edge6" class="edge">
<title>IslamicCivilComponent&#45;&gt;AppModule</title>
<path fill="none" stroke="black" d="M742.22,-84.91C742.22,-84.91 742.22,-103.79 742.22,-103.79"/>
<polygon fill="black" stroke="black" points="738.72,-103.79 742.22,-113.79 745.72,-103.79 738.72,-103.79"/>
</g>
<!-- ModalComponent -->
<g id="node7" class="node">
<title>ModalComponent</title>
<polygon fill="#ffffb3" stroke="black" points="594.88,-84.8 477.12,-84.8 477.12,-48.8 594.88,-48.8 594.88,-84.8"/>
<text text-anchor="middle" x="536" y="-62.6" font-family="Times,serif" font-size="14.00">ModalComponent</text>
</g>
<!-- ModalComponent&#45;&gt;AppModule -->
<g id="edge7" class="edge">
<title>ModalComponent&#45;&gt;AppModule</title>
<path fill="none" stroke="black" d="M536,-84.81C536,-100.85 536,-121.8 536,-121.8 536,-121.8 711.1,-121.8 711.1,-121.8"/>
<polygon fill="black" stroke="black" points="711.1,-125.3 721.1,-121.8 711.1,-118.3 711.1,-125.3"/>
</g>
<!-- NavbarComponent -->
<g id="node8" class="node">
<title>NavbarComponent</title>
<polygon fill="#ffffb3" stroke="black" points="459.03,-84.8 336.97,-84.8 336.97,-48.8 459.03,-48.8 459.03,-84.8"/>
<text text-anchor="middle" x="398" y="-62.6" font-family="Times,serif" font-size="14.00">NavbarComponent</text>
</g>
<!-- NavbarComponent&#45;&gt;AppModule -->
<g id="edge8" class="edge">
<title>NavbarComponent&#45;&gt;AppModule</title>
<path fill="none" stroke="black" d="M398,-85.07C398,-103.36 398,-128.8 398,-128.8 398,-128.8 711.13,-128.8 711.13,-128.8"/>
<polygon fill="black" stroke="black" points="711.13,-132.3 721.13,-128.8 711.13,-125.3 711.13,-132.3"/>
</g>
<!-- TypeaheadComponent -->
<g id="node9" class="node">
<title>TypeaheadComponent</title>
<polygon fill="#ffffb3" stroke="black" points="318.24,-84.8 175.76,-84.8 175.76,-48.8 318.24,-48.8 318.24,-84.8"/>
<text text-anchor="middle" x="247" y="-62.6" font-family="Times,serif" font-size="14.00">TypeaheadComponent</text>
</g>
<!-- TypeaheadComponent&#45;&gt;AppModule -->
<g id="edge9" class="edge">
<title>TypeaheadComponent&#45;&gt;AppModule</title>
<path fill="none" stroke="black" d="M247,-84.93C247,-105.37 247,-135.8 247,-135.8 247,-135.8 711.21,-135.8 711.21,-135.8"/>
<polygon fill="black" stroke="black" points="711.21,-139.3 721.21,-135.8 711.21,-132.3 711.21,-139.3"/>
</g>
<!-- AppComponent  -->
<g id="node12" class="node">
<title>AppComponent </title>
<polygon fill="#80b1d3" stroke="black" points="817.44,-214.8 708.56,-214.8 708.56,-178.8 817.44,-178.8 817.44,-214.8"/>
<text text-anchor="middle" x="763" y="-192.6" font-family="Times,serif" font-size="14.00">AppComponent </text>
</g>
<!-- AppModule&#45;&gt;AppComponent  -->
<g id="edge11" class="edge">
<title>AppModule&#45;&gt;AppComponent </title>
<path fill="none" stroke="black" stroke-dasharray="1,5" d="M763,-149.91C763,-149.91 763,-168.79 763,-168.79"/>
<polygon fill="black" stroke="black" points="759.5,-168.79 763,-178.79 766.5,-168.79 759.5,-168.79"/>
</g>
<!-- AppRoutingModule -->
<g id="node11" class="node">
<title>AppRoutingModule</title>
<polygon fill="#8dd3c7" stroke="black" points="152.27,-84.8 149.27,-88.8 128.27,-88.8 125.27,-84.8 23.73,-84.8 23.73,-48.8 152.27,-48.8 152.27,-84.8"/>
<text text-anchor="middle" x="88" y="-62.6" font-family="Times,serif" font-size="14.00">AppRoutingModule</text>
</g>
<!-- AppRoutingModule&#45;&gt;AppModule -->
<g id="edge10" class="edge">
<title>AppRoutingModule&#45;&gt;AppModule</title>
<path fill="none" stroke="black" d="M88,-84.81C88,-107.29 88,-142.8 88,-142.8 88,-142.8 711.29,-142.8 711.29,-142.8"/>
<polygon fill="black" stroke="black" points="711.29,-146.3 721.29,-142.8 711.29,-139.3 711.29,-146.3"/>
</g>
</g>
</svg>
